GidoleRegularSpiros.sfdir
StartChar: A
Encoding: 65 65 15
Width: 540
VWidth: 0
Flags: HW
LayerCount: 3
Back
Fore
SplineSet
270 371 m 6
 296.700006772 371 323.630628273 370.556605109 349.655885173 364.592012506 c 4
 375.681142073 358.627419904 400.568335578 347.182950959 421.25564315 330.303209638 c 4
 441.942950721 313.423468317 458.273414877 291.370649354 468.983044032 266.912640339 c 4
 479.761877248 242.296587239 485.000595347 215.498414975 485.000595347 188.50345106 c 4
 485.000595347 160.761042644 479.425463207 132.971710337 468.213563526 107.596465936 c 4
 456.934770843 82.069826472 439.786892255 59.0837337331 418.130100072 41.4824883484 c 4
 396.47330789 23.881242964 370.459813398 11.9355888761 343.257465608 5.70239054707 c 4
 316.055117818 -0.530807781951 287.907355423 -0.999999999799 260 -1 c 6
 112 -1 l 5
 122 371 l 5
 270 371 l 6
  Spiro
    270 371 ]
    485 189 o
    260 -1 [
    112 -1 v
    122 371 v
    0 0 z
  EndSpiro
251 667 m 6
 277.429814135 667 304.080835478 666.570108341 329.863853019 660.758819184 c 4
 355.646870561 654.947530027 380.345125214 643.797450834 400.980651029 627.283512796 c 4
 421.616176844 610.769574757 438.041518375 589.134935239 448.872036427 565.026120379 c 4
 459.620984977 541.098879847 465.000929448 514.828531497 465.000929448 488.597170372 c 4
 465.000929448 463.022147883 459.940710115 437.710456511 449.590590932 414.486461182 c 4
 439.325188618 391.452556822 423.724945161 370.752499649 404.067656811 354.955973149 c 4
 384.410368461 339.159446649 360.847308581 328.501981137 336.247380615 322.95375811 c 4
 311.647452648 317.405535083 286.217835647 317 261 317 c 6
 122 317 l 5
 112 667 l 5
 251 667 l 6
  Spiro
    251 667 ]
    465 488 o
    261 317 [
    122 317 v
    112 667 v
    0 0 z
  EndSpiro
EndSplineSet
Layer: 2
EndChar
StartChar: B
Encoding: 66 66 14
Width: 540
VWidth: 0
InSpiro: 1
Flags: HW
LayerCount: 3
Back
SplineSet
268 344 m 6
 290.53171047 344 313.26829304 343.600700886 335.196767012 338.421897355 c 4
 357.125240983 333.243093824 378.026906997 323.332876648 395.294114353 308.858018208 c 4
 412.561321708 294.383159768 426.07206937 275.584404545 434.894163444 254.851613299 c 4
 443.716257518 234.118822052 448.000000001 211.53171047 448 189 c 4
 448 166.46828953 443.716257517 143.881177947 434.894163442 123.148386701 c 4
 426.072069368 102.415595455 412.561321705 83.6168402316 395.294114349 69.1419817917 c 4
 378.026906993 54.6671233521 357.125240981 44.7569061762 335.19676701 39.5781026454 c 4
 313.268293039 34.3992991146 290.53171047 34.0000000002 268 34 c 6
 112 34 l 5
 112 344 l 5
 268 344 l 6
  Spiro
    268 344 ]
    448 189 o
    268 34 [
    112 34 v
    112 344 v
    0 0 z
  EndSpiro
EndSplineSet
Fore
SplineSet
258 632 m 2
 279.117124523 632 300.417354923 631.645190818 320.997878974 626.914971168 c 0
 341.578403025 622.184751518 361.253128974 613.115693291 377.608652699 599.757931809 c 0
 393.964176425 586.400170328 406.881120305 568.961742244 415.358802032 549.621063336 c 0
 423.836483759 530.280384427 428.000000001 509.117124523 428 488 c 0
 428 466.882875477 423.836483758 445.719615573 415.35880203 426.378936664 c 0
 406.881120303 407.038257755 393.964176422 389.599829672 377.608652696 376.242068191 c 0
 361.253128971 362.88430671 341.578403022 353.815248482 320.997878972 349.085028832 c 0
 300.417354922 344.354809183 279.117124523 344 258 344 c 2
 112 344 l 1
 112 632 l 1
 258 632 l 2
  Spiro
    258 632 ]
    428 488 o
    258 344 [
    112 344 v
    112 632 v
    0 0 z
  EndSpiro
EndSplineSet
Layer: 2
EndChar
StartChar: C
Encoding: 67 67 17
Width: 575
VWidth: 0
InSpiro: 1
Flags: HW
LayerCount: 3
Back
Fore
SplineSet
102 438 m 2
 102 464.190282227 102.565380086 490.676003113 109.307624164 515.983571704 c 0
 116.049868242 541.291140294 128.878849784 565.04867585 146.989376704 583.967970177 c 0
 165.099903625 602.887264503 188.102648525 616.840672441 212.799755453 625.557540716 c 0
 237.472196588 634.265703175 263.757161462 638.000011196 289.921528412 638.000011196 c 0
 346.310793968 637.991966062 403.648307202 621.023859078 447 585 c 0
 462.494889949 572.124246 476.0490149 556.910132493 487 540 c 1
 497 139 l 1
 486.475132947 120.325307114 472.890425622 103.387889157 457 89 c 0
 434.585725543 68.7051316255 407.679811744 53.604701101 379.091622106 43.7560060081 c 0
 350.406136599 33.8737922711 320.109980975 28.9998459732 289.708101956 28.9998459732 c 0
 263.60648147 28.9998459732 237.38337727 32.6960928168 212.764163827 41.3644921604 c 0
 188.053175404 50.0652053788 165.040787666 64.0251898188 146.935093967 82.9597934598 c 0
 128.829400268 101.894397099 116.018728674 125.671254435 109.28987776 150.990376155 c 0
 102.561026846 176.309497874 102.000000001 202.801997036 102 229 c 2
 102 438 l 2
  Spiro
    102 438 ]
    290 638 o
    447 585 o
    487 540 v
    497 139 v
    457 89 o
    290 29 o
    102 229 [
    0 0 z
  EndSpiro
EndSplineSet
Layer: 2
EndChar
StartChar: D
Encoding: 68 68 16
Width: 570
VWidth: 0
InSpiro: 1
Flags: HW
LayerCount: 3
Back
Fore
SplineSet
288 632 m 2
 313.848366033 632 340.052454936 631.451297826 364.861619334 624.195721454 c 0
 389.670783731 616.940145082 412.615981967 602.953514119 429.580482077 583.451110098 c 0
 446.544982186 563.948706077 457.249262397 539.503770851 462.545374448 514.203786193 c 0
 467.8414865 488.903801535 468.000000001 462.848366033 468 437 c 2
 468 229 l 2
 468 203.151633967 467.841486498 177.096198464 462.545374445 151.796213806 c 0
 457.249262392 126.496229148 446.54498218 102.051293922 429.58048207 82.5488899008 c 0
 412.615981961 63.0464858807 389.670783726 49.0598549177 364.86161933 41.804278546 c 0
 340.052454934 34.5487021742 313.848366032 34.0000000002 288 34 c 2
 112 34 l 1
 112 632 l 1
 288 632 l 2
  Spiro
    288 632 ]
    468 437 [
    468 229 ]
    288 34 [
    112 34 v
    112 632 v
    0 0 z
  EndSpiro
EndSplineSet
Layer: 2
EndChar
StartChar: G
Encoding: 71 71 13
Width: 575
VWidth: 0
Flags: HW
LayerCount: 3
Back
Fore
SplineSet
102 438 m 2
 102 464.191075013 102.562678925 490.677274882 109.298874424 515.987274498 c 0
 116.035069922 541.297274113 128.857682101 565.060250071 146.969432505 583.979470659 c 0
 165.08118291 602.898691246 188.092219319 616.842725531 212.79466111 625.546849835 c 0
 237.631300749 634.298259941 263.968613798 637.983247145 290.376170403 638.00024209 c 0
 347.993403228 638.00024209 406.807056204 620.961142108 451 584 c 0
 476.616087693 562.575768525 496.65266925 534.331154969 507.377762531 502.705943237 c 0
 513.431945938 484.853899709 516.490432483 466.000718651 516.490432483 447.152824531 c 0
 516.490432483 432.611339932 514.669900124 418.073002328 511 404 c 1
 507.623726195 407.14158403 502.996358164 408.892435264 498.385564233 408.795717367 c 0
 493.774770303 408.698999469 489.259106324 406.766726407 485.881737258 403.626319871 c 0
 482.504368192 400.485913335 480.29088118 396.22223878 479.173560411 391.747826045 c 0
 478.056239641 387.273413311 478 382.611808216 478 378 c 2
 478 229 l 2
 478 202.851012794 477.405913442 176.400981498 470.580687756 151.158441486 c 0
 463.75546207 125.915901474 450.81756286 102.270537729 432.684914688 83.4297149719 c 0
 414.552266515 64.5888922159 391.617999401 50.6472894481 367.00479927 41.8177984552 c 0
 342.391599139 32.9883074623 316.148987206 29 290 29 c 1
 263.851012794 29 237.60840086 32.9883074659 212.995200729 41.8177984607 c 0
 188.382000598 50.6472894555 165.447733485 64.588892225 147.315085313 83.4297149826 c 0
 129.182437141 102.270537738 116.244537932 125.915901481 109.419312246 151.158441491 c 0
 102.594086559 176.400981501 102.000000001 202.851012795 102 229 c 6
 102 438 l 2
  Spiro
    102 438 ]
    290 638 o
    451 584 o
    511 404 v
    478 378 [
    478 229 ]
    290 29 o
    102 229 [
    0 0 z
  EndSpiro
EndSplineSet
Layer: 2
EndChar
StartChar: J
Encoding: 74 74 18
Width: 465
VWidth: 0
InSpiro: 1
Flags: HWO
LayerCount: 3
Back
Fore
SplineSet
34 127 m 0
 10.2182035488 187.660619195 -2.84135946367 252.961846887 -2.84135946367 318.050989283 c 0
 -2.84135946367 353.886534613 1.11722195664 389.657793189 9.42444923668 424.554924883 c 0
 21.1223920403 473.695827951 41.8671073087 521.200400476 73.7952467387 560.34454605 c 0
 105.723386169 599.488691623 150.07351575 630.317787393 200 638 c 0
 207.72232144 639.188237386 215.545915324 639.800323241 223.364681271 639.800323241 c 0
 238.194473201 639.800323241 253.006896916 637.598380442 267.078004254 632.949306395 c 0
 288.567873461 625.849083873 308.143560588 612.954422707 322.946144262 595.833933375 c 0
 337.748727936 578.713444044 347.574080891 557.587696152 352.627367874 535.526600779 c 0
 357.680654856 513.465505406 358 490.632446584 358 468 c 2
 358 219 l 2
 358 195.559411722 357.656311643 171.931040343 352.644073861 149.032598229 c 0
 347.631836079 126.134156115 337.958268764 104.134261223 323.441642127 85.729676742 c 0
 308.92501549 67.3250922612 289.765338178 52.6805633403 268.362261983 43.1218234545 c 0
 246.979426458 33.5721231713 223.485067383 28.9999877101 200.066502778 28.9999877101 c 0
 154.086642741 29.0084848986 108.399749604 46.5239613805 74 77 c 0
 57.9457217313 91.2230920328 44.3462427922 108.211933101 34 127 c 0
  Spiro
    34 127 v
    200 638 o
    358 468 [
    358 219 ]
    200 29 o
    74 77 o
    0 0 z
  EndSpiro
EndSplineSet
Layer: 2
EndChar
StartChar: O
Encoding: 79 79 12
Width: 600
VWidth: 0
InSpiro: 1
Flags: HW
LayerCount: 3
Back
Fore
SplineSet
102 428 m 2
 102 455.5000165 102.629616497 483.319075828 109.837118023 509.857780191 c 0
 117.044619548 536.396484554 130.702917619 561.239716573 149.819566319 581.008496252 c 0
 168.93621502 600.777275929 193.09373262 615.374172114 218.997225221 624.607805122 c 0
 244.900717822 633.84143813 272.499983501 638.000000002 300 638 c 0
 327.5000165 638 355.099282178 633.841438126 381.002774779 624.607805116 c 0
 406.90626738 615.374172106 431.06378498 600.777275919 450.18043368 581.00849624 c 0
 469.297082379 561.239716564 482.95538045 536.396484546 490.162881975 509.857780186 c 0
 497.370383501 483.319075825 497.999999999 455.500016498 498 428 c 2
 498 239 l 2
 498 211.4999835 497.370383503 183.680924172 490.162881977 157.142219809 c 0
 482.955380452 130.603515446 469.297082381 105.760283427 450.180433681 85.991503748 c 0
 431.06378498 66.2227240711 406.90626738 51.6258278865 381.002774779 42.3921948785 c 0
 355.099282178 33.1585618705 327.500016499 28.9999999981 300 29 c 0
 272.4999835 29 244.900717822 33.1585618744 218.997225221 42.3921948844 c 0
 193.09373262 51.6258278944 168.93621502 66.222724081 149.81956632 85.9915037596 c 0
 130.702917621 105.760283436 117.04461955 130.603515454 109.837118025 157.142219814 c 0
 102.629616499 183.680924175 102.000000001 211.499983502 102 239 c 2
 102 428 l 2
  Spiro
    102 428 ]
    300 638 o
    498 428 [
    498 239 ]
    300 29 o
    102 239 [
    0 0 z
  EndSpiro
EndSplineSet
Layer: 2
EndChar
StartChar: P
Encoding: 80 80 19
Width: 515
VWidth: 0
Flags: HW
LayerCount: 3
Back
Fore
SplineSet
256 632 m 2
 279.101345531 632 302.503581337 631.407476841 324.6889413 624.966827132 c 0
 346.874301263 618.526177423 367.422487026 606.378510023 383.423374305 589.715864026 c 0
 399.424261582 573.053218027 410.826986555 552.278035095 417.900206108 530.286179091 c 0
 424.973425661 508.294323087 428.000000002 485.101345531 428 462 c 0
 428 438.898654469 424.973425656 415.705676912 417.900206101 393.713820909 c 0
 410.826986545 371.721964905 399.42426157 350.946781974 383.423374291 334.284135976 c 0
 367.422487014 317.62148998 346.874301254 305.47382258 324.688941294 299.033172871 c 0
 302.503581333 292.592523161 279.101345529 292.000000001 256 292 c 2
 112 292 l 1
 112 632 l 1
 256 632 l 2
  Spiro
    256 632 ]
    428 462 o
    256 292 [
    112 292 v
    112 632 v
    0 0 z
  EndSpiro
EndSplineSet
Layer: 2
EndChar
StartChar: S
Encoding: 83 83 20
Width: 508
VWidth: 0
InSpiro: 1
Flags: HW
LayerCount: 3
Back
Fore
SplineSet
456 556 m 4
 443.382402138 566.909675662 430.006709834 576.942578818 416 586 c 4
 365.120199911 618.901358317 305.561552887 639.994409927 244.957050508 640.000003964 c 4
 205.927549997 640.000003964 165.987330319 630.178383415 134.838616658 606.66227523 c 4
 119.258546914 594.899908102 106.118977788 579.807192278 97.1889232861 562.447872584 c 4
 88.59021136 545.732656652 83.9794251421 526.967317879 83.9794251421 508.172708009 c 4
 83.9794251421 486.894532794 89.5846600238 467.031962036 99.5217380871 448.944515345 c 4
 109.105682535 431.499841651 122.601286417 416.351482397 138.121695097 403.890120276 c 4
 169.162512455 378.967396036 207.422952172 365.139254257 245 352 c 4
 286.449882581 337.506563777 328.752180863 322.323351691 362.662286846 294.426090684 c 4
 379.617339838 280.47746018 394.236086698 263.527896762 404.530853892 244.135736405 c 4
 415.115768099 224.19702873 421.01293217 202.267947212 421.01293217 179.164057199 c 4
 421.01293217 158.258741143 415.989000898 137.385201869 406.602099463 118.703511289 c 4
 396.940410571 99.4749422428 382.741418143 82.6212030006 365.808265979 69.3413514353 c 4
 331.969006335 42.8028581405 288.108979819 30.9999773847 245.103110552 30.9999773847 c 4
 181.902609912 31.0138391972 119.770155369 54.4177742953 69 92 c 4
 54.7442552976 102.552707808 41.3524046116 114.271920828 29 127 c 1028
  Spiro
    456 556 {
    416 586 o
    245 640 o
    84 506 o
    245 352 o
    421 181 o
    245 31 o
    69 92 o
    29 127 o
    0 0 z
  EndSpiro
EndSplineSet
Layer: 2
EndChar
StartChar: U
Encoding: 85 85 21
Width: 570
VWidth: 0
InSpiro: 1
Flags: HW
LayerCount: 3
Back
SplineSet
107 448 m 2
 107 472.798044904 107.55856446 497.879146199 114.001535462 521.825568808 c 0
 120.444506463 545.771991416 132.662024325 568.219456494 149.81063077 586.132254379 c 0
 166.959237217 604.045052262 188.670160728 617.331286278 211.993044992 625.756611237 c 0
 235.315929256 634.181936196 260.201955096 638.000000002 285 638 c 0
 309.798044904 638 334.684070745 634.181936193 358.006955008 625.756611232 c 0
 381.329839272 617.331286271 403.040762783 604.045052253 420.189369228 586.132254369 c 0
 437.337975673 568.219456486 449.555493535 545.77199141 455.998464537 521.825568803 c 0
 462.441435538 497.879146196 462.999999999 472.798044903 463 448 c 2
 463 219 l 2
 463 194.201955096 462.44143554 169.120853801 455.998464538 145.174431192 c 0
 449.555493537 121.228008584 437.337975675 98.780543506 420.18936923 80.8677456214 c 0
 403.040762783 62.9549477383 381.329839272 49.6687137219 358.006955008 41.243388763 c 0
 334.684070744 32.818063804 309.798044904 28.9999999984 285 29 c 0
 260.201955096 29 235.315929255 32.8180638074 211.993044992 41.243388768 c 0
 188.670160728 49.6687137286 166.959237217 62.9549477467 149.810630772 80.8677456313 c 0
 132.662024327 98.7805435143 120.444506465 121.22800859 114.001535463 145.174431197 c 0
 107.558564462 169.120853804 107.000000001 194.201955097 107 219 c 2
 107 448 l 2
  Spiro
    107 448 ]
    285 638 o
    463 448 [
    463 219 ]
    285 29 o
    107 219 [
    0 0 z
  EndSpiro
EndSplineSet
Fore
SplineSet
107 468 m 2
 107 491.59197109 107.685838921 515.534749313 114.742491838 538.046629499 c 0
 121.799144754 560.558509686 135.034981039 581.114736518 152.773499481 596.66870911 c 0
 170.512017926 612.222681699 192.280646004 622.768976745 214.999003438 629.129584844 c 0
 237.717360872 635.490192944 261.40802891 638.000000004 285 638 c 0
 308.59197109 638 332.282639128 635.490192936 355.000996562 629.129584833 c 0
 377.719353995 622.768976731 399.487982072 612.222681681 417.226500514 596.668709089 c 0
 434.965018955 581.1147365 448.20085524 560.558509672 455.257508158 538.046629489 c 0
 462.314161075 515.534749306 462.999999998 491.591971087 463 468 c 2
 463 199 l 2
 463 175.40802891 462.314161079 151.465250687 455.257508162 128.953370501 c 0
 448.200855246 106.441490314 434.965018961 85.8852634821 417.226500519 70.3312908899 c 0
 399.487982074 54.7773183006 377.719353996 44.2310232547 355.000996562 37.8704151555 c 0
 332.282639128 31.5098070563 308.59197109 28.9999999963 285 29 c 0
 261.40802891 29 237.717360872 31.5098070638 214.999003438 37.8704151666 c 0
 192.280646005 44.2310232695 170.512017928 54.7773183189 152.773499486 70.3312909112 c 0
 135.034981045 85.8852634999 121.79914476 106.441490328 114.742491842 128.953370511 c 0
 107.685838925 151.465250694 107.000000002 175.408028913 107 199 c 2
 107 468 l 2
  Spiro
    107 468 ]
    285 638 o
    463 468 [
    463 199 ]
    285 29 o
    107 199 [
    0 0 z
  EndSpiro
EndSplineSet
Layer: 2
EndChar
StartChar: a
Encoding: 97 97 11
Width: 460
VWidth: 0
InSpiro: 1
Flags: HW
LayerCount: 3
Back
SplineSet
360 292 m 6
 360 314.933883256 359.657546428 338.043790829 354.841056206 360.46619978 c 4
 350.024565983 382.88860873 340.759832665 404.459597694 326.888994964 422.723301116 c 4
 313.018157262 440.987004538 294.73167577 455.807776626 274.177278575 465.980276672 c 4
 253.622881381 476.152776718 230.901418792 481.780156355 208 483 c 4
 204.809593155 483.169936961 201.614232988 483.254851247 198.418643412 483.254851247 c 4
 175.416581485 483.254851247 152.402633373 478.855260246 131.138568705 470.096501994 c 4
 106.920367855 460.120922544 85.0594252514 444.340185866 68.3324389868 424.184755623 c 4
 51.6054527225 404.029325381 40.2647086233 379.648059882 34.352766422 354.131743981 c 4
 28.4408242206 328.61542808 28.0000000002 302.192240029 28 276 c 6
 28 201 l 6
 28 174.69695771 28.5770859556 148.117751175 35.1481149687 122.648718775 c 4
 41.7191439819 97.1796863747 54.1505303787 73.1651920692 71.7249918555 53.5951042436 c 4
 89.2994533332 34.0250164194 111.674631799 18.9652308969 136.027747053 9.02662882472 c 4
 160.413799501 -0.925415046318 186.739211818 -6.00002625996 213.102479027 -6.00002625996 c 4
 233.909695383 -6.00002625996 254.810774935 -2.75192081045 274.271514566 4.61061827418 c 4
 293.764203571 11.9852446954 311.727145861 23.6555793226 325.708485055 39.1110700563 c 4
 339.689824249 54.5665607891 349.418084308 73.6842440475 354.50739546 93.894364073 c 4
 359.596706611 114.104484099 360 135.158933822 360 156 c 6
 360 292 l 6
  Spiro
    360 292 ]
    208 483 o
    28 276 [
    28 201 ]
    213 -6 o
    360 156 [
    0 0 z
  EndSpiro
EndSplineSet
Fore
SplineSet
273.624635417 440.947447088 m 0
 293.4308403 434.437823085 311.995238352 423.725753385 326.635936975 408.882879662 c 0
 341.276635597 394.04000594 351.662382167 375.190196556 357.107296759 355.065240369 c 0
 362.552211352 334.940284181 363 313.848524084 363 293 c 2
 363 194 l 2
 363 172.662813664 362.572660435 151.107854271 357.353549239 130.418813716 c 0
 352.134438044 109.729773162 342.190939392 90.1642086051 327.954984498 74.2704013516 c 0
 313.719029604 58.3765940989 295.463429659 46.255856389 275.602407011 38.4574398778 c 0
 255.741384363 30.6590233667 234.337186187 27.0025182896 213 27 c 0
 212.97787037 26.9999986941 l 0
 179.530955563 26.9999986941 145.518472444 35.9495888231 118.552609751 55.7364951602 c 0
 105.066704803 65.6321302866 93.514704606 78.2727082404 85.4715325908 92.939016936 c 0
 77.4386801827 107.586508361 72.9999780214 124.230216224 72.9999780214 140.935616653 c 0
 73 141 l 0
 73.0142247014 161.833950844 80.0330061295 182.492352159 92.1488807997 199.441077511 c 0
 104.26475547 216.389802864 121.202259363 229.591924371 139.913710769 238.753545208 c 0
 177.19876657 257.009293344 220.015422902 260.000122021 261.539495954 260.000122021 c 0
 262 260 l 0
 307.456063864 259.97596912 352.811145376 255.921558424 398 251 c 2
 499 240 l 1
 490 471 l 1
 262 593 l 1
 -6 518 l 1
 -7 368 l 1
 17.0180814642 388.741465715 44.0804331657 405.933428477 73 419 c 0
 116.425740337 438.620817466 163.868174438 450.000386021 211.519363962 450.000386021 c 0
 232.637275026 449.983425234 253.645745597 447.513826739 273.624635417 440.947447088 c 0
  Spiro
    212 450 o
    363 293 [
    363 194 ]
    213 27 o
    73 141 o
    262 260 o
    398 251 [
    499 240 v
    490 471 v
    262 593 v
    -6 518 v
    -7 368 v
    73 419 o
    0 0 z
  EndSpiro
EndSplineSet
Layer: 2
EndChar
StartChar: b
Encoding: 98 98 1
Width: 510
VWidth: 0
InSpiro: 1
Flags: HW
LayerCount: 3
Back
SplineSet
99 307 m 2
 99 329.37007557 99.4119706395 351.956508798 104.714921112 373.688949923 c 0
 110.017871585 395.421391049 120.166534219 416.059160258 134.879347973 432.910076923 c 0
 149.592161728 449.760993587 168.603267044 462.693120781 189.385618119 470.97044914 c 0
 210.167969195 479.247777498 232.629949426 483.033441052 255 483 c 0
 280.9846349 482.961155496 306.993054076 477.838729973 330.911027491 467.683272941 c 0
 354.829000906 457.52781591 376.605498708 442.131221074 393.512433821 422.399056852 c 0
 410.419368933 402.666892631 422.157138828 378.702542933 428.325071807 353.460527116 c 0
 434.493004785 328.218511298 435 301.984663934 435 276 c 2
 435 201 l 2
 435 175.015336065 434.493004786 148.781488699 428.325071807 123.539472881 c 0
 422.157138829 98.2974570627 410.419368934 74.3331073637 393.512433821 54.6009431413 c 0
 376.605498708 34.8687789199 354.829000905 19.4721840858 330.91102749 9.31672705541 c 0
 306.993054075 -0.83872997498 280.9846349 -5.96115549743 255 -6 c 0
 232.629949426 -6.03344105138 210.167969195 -2.24777749688 189.385618119 6.02955086269 c 0
 168.603267043 14.3068792223 149.592161727 27.2390064172 134.879347973 44.0899230817 c 0
 120.166534219 60.9408397455 110.017871586 81.5786089541 104.714921113 103.311050079 c 0
 99.41197064 125.043491204 99.0000000002 147.629924431 99 170 c 2
 99 307 l 2
  Spiro
    99 307 ]
    255 483 o
    435 276 [
    435 201 ]
    255 -6 o
    99 170 [
    0 0 z
  EndSpiro
EndSplineSet
Fore
SplineSet
100 283 m 2
 100 304.334960938 100.428710938 325.888671875 105.65234375 346.57421875 c 0
 110.876953125 367.259765625 120.826171875 386.819335938 135.063476562 402.708984375 c 0
 149.299804688 418.599609375 167.551757812 430.719726562 187.408203125 438.524414062 c 0
 207.264648438 446.329101562 228.665039062 450 250 450 c 0
 271.334960938 450 292.735351562 446.329101562 312.591796875 438.524414062 c 0
 332.448242188 430.719726562 350.700195312 418.599609375 364.936523438 402.708984375 c 0
 379.173828125 386.819335938 389.123046875 367.259765625 394.34765625 346.57421875 c 0
 399.571289062 325.888671875 400 304.334960938 400 283 c 2
 400 194 l 2
 400 172.665039062 399.571289062 151.111328125 394.34765625 130.42578125 c 0
 389.123046875 109.740234375 379.173828125 90.1806640625 364.936523438 74.291015625 c 0
 350.700195312 58.400390625 332.448242188 46.2802734375 312.591796875 38.4755859375 c 0
 292.735351562 30.6708984375 271.334960938 27 250 27 c 0
 228.665039062 27 207.264648438 30.6708984375 187.408203125 38.4755859375 c 0
 167.551757812 46.2802734375 149.299804688 58.400390625 135.063476562 74.291015625 c 0
 120.826171875 90.1806640625 110.876953125 109.740234375 105.65234375 130.42578125 c 0
 100.428710938 151.111328125 100 172.665039062 100 194 c 2
 100 283 l 2
  Spiro
    100 283 ]
    250 450 o
    400 283 [
    400 194 ]
    250 27 o
    100 194 [
    0 0 z
  EndSpiro
EndSplineSet
Layer: 2
EndChar
StartChar: c
Encoding: 99 99 2
Width: 505
VWidth: 0
InSpiro: 1
Flags: HW
HStem: 26.9994 423.002<159.589 336.729>
VStem: 90 369.133<146.312 330.548>
LayerCount: 3
Back
Fore
SplineSet
369 60 m 0
 330.935747223 39.2949913748 288.058535307 26.9996452746 244.607877928 26.9996452746 c 0
 222.656727832 26.9996452746 200.593217088 30.3365511825 180.068197749 38.1158077444 c 0
 159.420959065 45.9413870713 140.444320896 58.4208143239 125.757548582 74.9085939223 c 0
 111.070776268 91.3963735202 100.94876887 111.738589039 95.6740474716 133.179798688 c 0
 90.3993260728 154.621008337 90.0000000002 176.919507318 90 199 c 2
 90 278 l 2
 90 300.077024467 90.4002404779 322.372354996 95.6788273148 343.809041548 c 0
 100.957414152 365.2457281 111.085621196 385.581122114 125.775446256 402.061536217 c 0
 140.465271317 418.54195032 159.441012331 431.014015749 180.083732555 438.841730045 c 0
 200.689714399 446.655513157 222.843976231 450.000031888 244.88212575 450.000031888 c 0
 286.2435168 449.988842724 327.221210905 438.852376138 364 420 c 0
 393.999657893 404.622527046 421.221088908 383.850902552 444 359 c 1
 449 125 l 1
 426.62059014 98.672563768 399.353906184 76.5109740368 369 60 c 0
  Spiro
    369 60 o
    245 27 o
    90 199 [
    90 278 ]
    245 450 o
    364 420 o
    444 359 v
    449 125 v
    0 0 z
  EndSpiro
EndSplineSet
Layer: 2
EndChar
StartChar: e
Encoding: 101 101 3
Width: 490
VWidth: 0
InSpiro: 1
Flags: HW
LayerCount: 3
Back
Fore
SplineSet
394 61 m 0
 351.282053986 38.5299426965 303.005280472 26.9997584052 254.634615173 26.9997584052 c 0
 232.01524167 26.9997584052 209.272819735 29.7798718744 187.783363125 36.835256666 c 0
 166.178192198 43.928632601 145.91382395 55.5720182123 129.897791068 71.7146971608 c 0
 113.881758186 87.8573761081 102.47861401 108.377282121 96.4899960833 130.314370538 c 0
 90.5013781568 152.251458954 90.0000000005 175.260180457 90 198 c 2
 90 278 l 2
 90 300.009767741 90.4466583274 322.246493649 95.8613542273 343.579823074 c 0
 101.276050127 364.913152498 111.58565965 385.072118086 126.315166244 401.426674378 c 0
 141.04467284 417.781230669 159.908757343 430.230264029 180.41036658 438.237379284 c 0
 200.911975817 446.244494539 222.990232259 450 245 450 c 1
 267.009767741 450 289.088024184 446.244494537 309.589633421 438.237379281 c 0
 330.091242658 430.230264025 348.95532716 417.781230664 363.684833755 401.426674372 c 0
 378.414340349 385.072118081 388.723949872 364.913152494 394.138645772 343.579823071 c 0
 399.553341672 322.246493647 400 300.00976774 400 278 c 2
 400 184 l 1
 474 126 l 1
 452.063233596 99.2556268184 424.613374819 77.1029344951 394 61 c 0
  Spiro
    394 61 o
    255 27 o
    90 198 [
    90 278 ]
    245 450 o
    400 278 [
    400 184 v
    474 126 v
    0 0 z
  EndSpiro
EndSplineSet
Layer: 2
EndChar
StartChar: f
Encoding: 102 102 5
Width: 362
VWidth: 0
InSpiro: 1
Flags: HW
LayerCount: 3
Back
Fore
SplineSet
416 252 m 2
 399.010752183 242.08960544 381.657441179 232.559333309 363.000917311 226.331606687 c 0
 344.402776442 220.123368871 324.791640577 216.999907659 305.184649743 216.999907659 c 0
 283.073841489 217.010965049 261.006595817 220.80611419 240.458123555 228.860204908 c 0
 219.975374641 236.888534985 201.123989326 249.329657399 186.387797374 265.664948448 c 0
 171.651605421 282.000239495 161.317499294 302.134690804 155.88497305 323.453338638 c 0
 150.452446805 344.771986472 150 367.000066208 150 389 c 2
 150 508 l 2
 150 524.656055025 150.277124749 541.463167351 154.08119534 557.678999613 c 0
 157.885265931 573.894831875 165.202276104 589.364246002 175.965131999 602.075858881 c 0
 186.727987895 614.78747176 200.756835119 624.623472762 216.183327784 630.90419669 c 0
 231.583376109 637.1741541 248.286579835 640.000024994 264.914343104 640.000024994 c 0
 284.753161114 639.994236122 304.484646229 636.070403354 323 629 c 0
 354.753846223 616.874252708 382.802135408 595.338375285 403 568 c 1
 488 294 l 1
 416 252 l 2
  Spiro
    416 252 ]
    305 217 o
    150 389 [
    150 508 ]
    265 640 o
    323 629 o
    403 568 v
    488 294 v
    0 0 z
  EndSpiro
EndSplineSet
Layer: 2
EndChar
StartChar: h
Encoding: 104 104 7
Width: 490
VWidth: 0
InSpiro: 1
Flags: HW
LayerCount: 3
Back
SplineSet
103 316 m 2
 103 337.159153012 103.378269239 358.518444461 108.331963677 379.089556916 c 0
 113.285658115 399.66066937 122.778572388 419.226205085 136.602809087 435.244951474 c 0
 150.427045787 451.263697862 168.339491126 463.604949627 187.966222768 471.51071722 c 0
 207.505778451 479.381369804 228.652150268 483.000216044 249.718047703 483.000216044 c 0
 275.328207897 482.980592423 300.774389739 477.77647041 324.181870551 467.552364724 c 0
 347.489341527 457.371942129 368.618587838 442.044963509 384.9754694 422.568525614 c 0
 401.332350961 403.092087721 412.638317552 379.5653993 418.576996568 354.834622948 c 0
 424.515675584 330.103846595 425 304.433820151 425 279 c 2
 425 0 l 2
 425 -24.220910506 424.505920916 -48.7018917806 418.436999666 -72.150147592 c 0
 412.368078416 -95.5984034034 400.794285716 -117.710267155 384.254741074 -135.404785197 c 0
 367.715196431 -153.099303239 346.530412802 -166.253736596 323.623744991 -174.123747749 c 0
 305.141450991 -180.473683109 285.581281552 -183.520221268 266.027049221 -183.520221268 c 0
 261.346070043 -183.520221268 256.665431089 -183.345639656 252 -183 c 0
 229.931538962 -181.36505242 208.089449785 -175.879864459 188.152249493 -166.277881816 c 0
 168.2150492 -156.675899174 150.261790123 -142.815746604 136.461470641 -125.517156823 c 0
 122.66115116 -108.218567044 113.238581516 -87.5926441877 108.310122053 -66.0195054856 c 0
 103.381662589 -44.4463667835 103 -22.1289409178 103 0 c 2
 103 316 l 2
  Spiro
    103 316 ]
    250 483 o
    425 279 [
    425 0 ]
    252 -183 o
    103 0 [
    0 0 z
  EndSpiro
EndSplineSet
Fore
SplineSet
100 288 m 2
 100 308.660465765 100.411277869 329.530109396 105.444103775 349.568210829 c 0
 110.476929681 369.606312261 120.066480912 388.566815243 133.811182291 403.992055262 c 0
 147.555883671 419.41729528 165.194886596 431.20951258 184.405739641 438.812010255 c 0
 203.616592685 446.414507931 224.339534235 450.000000001 245 450 c 0
 265.660465765 450 286.383407315 446.414507929 305.59426036 438.812010253 c 0
 324.805113405 431.209512576 342.444116329 419.417295275 356.188817708 403.992055257 c 0
 369.933519087 388.566815239 379.523070318 369.606312258 384.555896224 349.568210826 c 0
 389.58872213 329.530109394 390 308.660465764 390 288 c 2
 390 189 l 2
 390 168.339534235 389.588722131 147.469890604 384.555896225 127.431789171 c 0
 379.523070319 107.393687739 369.933519088 88.4331847566 356.188817709 73.007944738 c 0
 342.444116329 57.5827047202 324.805113404 45.7904874201 305.594260359 38.1879897446 c 0
 286.383407315 30.5854920691 265.660465765 26.9999999991 245 27 c 0
 224.339534235 27 203.616592685 30.5854920709 184.40573964 38.1879897474 c 0
 165.194886595 45.7904874238 147.555883671 57.5827047249 133.811182292 73.0079447435 c 0
 120.066480913 88.4331847612 110.476929682 107.393687742 105.444103776 127.431789174 c 0
 100.41127787 147.469890606 100 168.339534236 100 189 c 2
 100 288 l 2
  Spiro
    100 288 ]
    245 450 o
    390 288 [
    390 189 ]
    245 27 o
    100 189 [
    0 0 z
  EndSpiro
EndSplineSet
Layer: 2
EndChar
StartChar: m
Encoding: 109 109 10
Width: 755
VWidth: 0
Flags: HW
LayerCount: 3
Back
SplineSet
354 295 m 2
 354 318.826520322 354.448360541 342.884116446 360.11404648 366.027216358 c 0
 365.779732419 389.170316269 376.603780553 411.138284084 392.253608518 429.104528971 c 0
 407.903436483 447.070773858 428.095872987 460.907948913 450.184342138 469.841179082 c 0
 472.272811288 478.77440925 496.173485202 482.983774602 520 483 c 0
 545.150175485 483.017126786 570.362088117 478.385260731 593.622471176 468.820418852 c 0
 616.882854236 459.255576973 638.122093036 444.560346979 654.606473638 425.565694668 c 0
 671.09085424 406.571042358 682.523203193 383.394454462 688.519389396 358.96952107 c 0
 694.5155756 334.544587678 695 309.150181316 695 284 c 2
 695 -29 l 2
 695 -50.3550877682 694.327637759 -72.0526290004 687.67228314 -92.3441550268 c 0
 681.016928522 -112.635681053 668.589126636 -130.983877984 652.196272016 -144.670151801 c 0
 635.803417394 -158.356425616 615.905789429 -167.411790929 595.300388078 -173.020463565 c 0
 574.694986727 -178.629136201 553.336837465 -181.117310595 532 -182 c 0
 509.426483518 -182.933849919 486.687046748 -182.113395908 464.487252208 -177.917583184 c 0
 442.287457667 -173.72177046 420.524833414 -165.760966657 402.310326131 -152.394312383 c 0
 384.095818849 -139.027658116 369.98149654 -120.163573238 362.389350346 -98.8845921072 c 0
 354.797204152 -77.6056109762 354.000000004 -54.5928245646 354 -32 c 2
 354 295 l 2
  Spiro
    354 295 ]
    520 483 o
    695 284 [
    695 -29 ]
    532 -182 o
    354 -32 [
    0 0 z
  EndSpiro
113 328 m 2
 113 347.342433359 113.304575868 366.850175055 117.586781266 385.712636325 c 0
 121.868986665 404.575097595 130.115908297 422.632275483 142.358636171 437.607099102 c 0
 154.601364045 452.581922721 170.653102805 464.340098043 188.442823067 471.933225281 c 0
 206.232543328 479.526352519 225.65764287 483.054303582 245 483 c 0
 270.174780537 482.929321916 295.286324525 476.890458004 317.872238615 465.770608402 c 0
 340.458152706 454.6507588 360.483481319 438.320351707 375.751725939 418.303976494 c 0
 391.01997056 398.287601281 401.332374982 374.686073328 406.801904267 350.112534311 c 0
 412.271433552 325.538995293 412.836530201 300.17434901 413 275 c 2
 415 -33 l 2
 415.138689606 -54.3581993525 414.614145078 -76.0648696988 408.08427147 -96.4008640204 c 0
 401.554397862 -116.736858342 389.215938438 -135.175538251 372.808127652 -148.849442581 c 0
 356.400316864 -162.523346907 336.379484419 -171.455479727 315.624968548 -176.499484618 c 0
 294.870452677 -181.543489509 273.333850863 -183.028942043 252 -182 c 0
 233.082704937 -181.087609627 214.18042077 -178.141191984 196.237466203 -172.079270663 c 0
 178.294511636 -166.017349342 161.32582491 -156.607323046 147.686702333 -143.466895198 c 0
 134.047579757 -130.326467352 124.073995364 -113.49586537 118.78217715 -95.3108944151 c 0
 113.490358937 -77.1259234606 113.000000001 -57.939284797 113 -39 c 2
 113 328 l 2
  Spiro
    113 328 ]
    245 483 o
    413 275 [
    415 -33 ]
    252 -182 o
    113 -39 [
    0 0 z
  EndSpiro
EndSplineSet
Fore
SplineSet
625 -130 m 0
 625 293 l 0
 625 312.624023438 624.393554688 330.192382812 620.696289062 345.000976562 c 0
 616.98828125 359.850585938 609.924804688 373.569335938 600.578125 384.120117188 c 0
 591.145507812 394.768554688 578.692382812 403.232421875 564.967773438 408.703125 c 0
 551.086914062 414.237304688 535.671875 417 520 417 c 0
 504.327148438 417 488.913085938 414.237304688 475.033203125 408.704101562 c 0
 461.305664062 403.232421875 448.854492188 394.768554688 439.422851562 384.12109375 c 0
 430.07421875 373.567382812 423.01171875 359.8515625 419.303710938 345.000976562 c 0
 415.606445312 330.193359375 415 312.624023438 415 293 c 2
 415 -130 l 1024
345 -130 m 0
 345 293 l 0
 345 312.624023438 344.393554688 330.192382812 340.696289062 345.000976562 c 0
 336.98828125 359.850585938 329.924804688 373.569335938 320.578125 384.120117188 c 0
 311.145507812 394.768554688 298.692382812 403.232421875 284.967773438 408.703125 c 0
 271.086914062 414.237304688 255.671875 417 240 417 c 0
 224.327148438 417 208.913085938 414.237304688 195.033203125 408.704101562 c 0
 181.305664062 403.232421875 168.854492188 394.768554688 159.422851562 384.12109375 c 0
 150.07421875 373.567382812 143.01171875 359.8515625 139.303710938 345.000976562 c 0
 135.606445312 330.193359375 135 312.624023438 135 293 c 2
 135 -130 l 0
 345 -130 l 0
EndSplineSet
Layer: 2
EndChar
StartChar: o
Encoding: 111 111 0
Width: 490
VWidth: 0
InSpiro: 1
Flags: HW
VStem: 90 310<95.4385 380.729>
LayerCount: 3
Back
Fore
SplineSet
90 278 m 2
 90 300.009767741 90.4466583274 322.246493649 95.8613542273 343.579823074 c 0
 101.276050127 364.913152498 111.58565965 385.072118086 126.315166244 401.426674378 c 0
 141.04467284 417.781230669 159.908757343 430.230264029 180.41036658 438.237379284 c 0
 200.911975817 446.244494539 222.990232259 450.000000001 245 450 c 0
 267.009767741 450 289.088024184 446.244494537 309.589633421 438.237379281 c 0
 330.091242658 430.230264025 348.95532716 417.781230664 363.684833755 401.426674372 c 0
 378.414340349 385.072118081 388.723949872 364.913152494 394.138645772 343.579823071 c 0
 399.553341672 322.246493647 400 300.00976774 400 278 c 2
 400 199 l 2
 400 176.990232259 399.553341673 154.753506351 394.138645773 133.420176926 c 0
 388.723949873 112.086847502 378.41434035 91.9278819137 363.684833756 75.5733256218 c 0
 348.95532716 59.2187693308 330.091242657 46.7697359707 309.58963342 38.7626207157 c 0
 289.088024183 30.7555054608 267.009767741 26.999999999 245 27 c 0
 222.990232259 27 200.911975816 30.7555054629 180.410366579 38.7626207189 c 0
 159.908757342 46.7697359749 141.04467284 59.2187693361 126.315166245 75.573325628 c 0
 111.585659651 91.9278819189 101.276050128 112.086847506 95.8613542281 133.420176929 c 0
 90.4466583281 154.753506353 90.0000000004 176.99023226 90 199 c 2
 90 278 l 2
  Spiro
    90 278 ]
    245 450 o
    400 278 [
    400 199 ]
    245 27 o
    90 199 [
    0 0 z
  EndSpiro
EndSplineSet
Layer: 2
EndChar
StartChar: r
Encoding: 114 114 9
Width: 353
VWidth: 0
InSpiro: 1
Flags: HW
LayerCount: 3
Back
SplineSet
100 273 m 2
 100 295.682282008 100.465842404 318.600714068 106.075911747 340.578271691 c 0
 111.68598109 362.555829313 122.361569113 383.308131723 137.584828877 400.122954924 c 0
 152.808088641 416.937778123 172.281149787 429.7140031 193.423504578 437.929035112 c 0
 214.572040425 446.146468823 237.324741155 449.999003227 260.01743016 450.000000766 c 0
 279.657101963 450.000000766 299.325701692 447.081662471 318 441 c 0
 349.419958571 430.767455798 377.790996541 411.144118587 398 385 c 1
 418.927850491 345.55609682 429.849233203 300.809217219 429.849233203 256.184528809 c 0
 429.849233203 225.415297358 424.656924201 194.704158773 413.972386443 165.829546087 c 0
 400.882212502 130.453780555 379.65606539 97.8964795861 351.404062441 72.9040453281 c 0
 323.152059492 47.91161107 287.549703754 30.580110165 250 27 c 0
 245.264639931 26.5485154602 240.50419351 26.3200484974 235.743696 26.3200484974 c 0
 218.492585426 26.3200484974 201.240803944 29.3202666971 185.179720533 35.5800264929 c 0
 164.686531302 43.5671864349 146.295805612 56.9217322099 132.485241134 74.039963358 c 0
 118.674676657 91.158194506 109.610491351 111.84462536 104.949368845 133.339728658 c 0
 100.288246339 154.834831956 100 177.005329536 100 199 c 2
 100 273 l 2
  Spiro
    100 273 ]
    260 450 o
    318 441 o
    398 385 v
    250 27 o
    100 199 [
    0 0 z
  EndSpiro
EndSplineSet
Fore
SplineSet
95 297 m 2
 95 320.640617686 95.4417445805 344.511599939 101.071694769 367.472054322 c 0
 106.701644957 390.432508704 117.466943396 412.223305224 133.040937165 430.008960192 c 0
 148.614930934 447.79461516 168.713623007 461.441022508 190.672578954 470.197908841 c 0
 212.634217408 478.955864915 236.36241477 482.999572689 260.007578294 483.000000137 c 0
 286.61225829 483.000000137 313.261377555 477.934683828 337.82168101 467.707267598 c 0
 362.384316452 457.478880281 384.799294372 441.871559237 402.219827677 421.76016977 c 0
 419.640360982 401.648780303 431.752054149 377.143955974 438.114756396 351.308728338 c 0
 444.477458643 325.473500702 445 298.607197652 445 272 c 2
 445 207 l 2
 445 180.497181983 444.423644852 153.721301412 437.8627938 128.043400479 c 0
 431.301942748 102.365499546 418.890742817 78.1300605179 401.343783429 58.267946353 c 0
 383.796824041 38.4058321896 361.458966978 22.9860568355 337.121314205 12.4942495399 c 0
 312.783661432 2.00244224419 286.476456165 -3.81820823479 260 -5 c 0
 256.760583551 -5.1445932063 253.515811957 -5.21844373779 250.270366669 -5.21844373779 c 0
 230.660543756 -5.21844373779 211.026125024 -2.52224199894 192.399821245 3.55574303146 c 0
 170.690845579 10.6396406581 150.426768436 22.535389045 134.494086308 38.8942053314 c 0
 118.56140418 55.2530216166 107.301244326 75.9512922801 101.394159228 98.0095690867 c 0
 95.4870741306 120.067845893 95.0000000005 143.164474387 95 166 c 2
 95 297 l 2
  Spiro
    95 297 ]
    260 483 o
    445 272 [
    445 207 ]
    260 -5 o
    95 166 [
    0 0 z
  EndSpiro
EndSplineSet
Layer: 2
EndChar
StartChar: s
Encoding: 115 115 4
Width: 416
VWidth: 0
InSpiro: 1
Flags: HW
LayerCount: 3
Back
SplineSet
421 368 m 1
 397.057033365 388.836512359 369.964172925 406.01914543 341 419 c 0
 297.296955899 438.586364893 249.709579992 449.976678762 201.755570115 450.000119481 c 0
 172.047879953 450.000119481 141.507489521 444.701264961 116.426867519 428.787877436 c 0
 103.852160664 420.809359871 92.879369972 410.165765546 85.1640055422 397.427902824 c 0
 77.3607960374 384.545010204 72.9982811396 369.704623783 72.9982811396 354.481248253 c 0
 72.9982811396 339.482877967 77.3056191534 324.557141541 84.9769111769 311.667041067 c 0
 92.7366416324 298.628337168 103.816656683 287.713256994 116.452596802 279.313600248 c 0
 141.72447704 262.514286758 172.258779646 256.028654605 202 250 c 0
 234.392477244 243.433925885 267.663344957 236.128607409 294.815800066 217.283711739 c 0
 308.392027621 207.861263904 320.176826582 195.700913996 328.378020136 181.35389681 c 0
 336.49999268 167.145467402 341.00128556 150.843605645 341.00128556 134.478876468 c 0
 341.00128556 117.884207576 336.444532086 101.642542131 328.223429084 87.3947021644 c 0
 320.081751346 73.2845126375 308.442463826 61.3032533746 294.962968455 52.1551623491 c 0
 267.919272846 33.8014938863 234.465140401 26.9998323607 201.698169232 26.9998323607 c 0
 150.094587649 26.9998323607 99.044757649 41.6969032486 53 65 c 0
 24.0396843685 79.6567181927 -2.95443869192 98.1979301204 -27 120 c 1
 -52 660 l 1
 530 658 l 1
 506 251 l 1
 421 368 l 1
  Spiro
    421 368 v
    341 419 o
    202 450 o
    73 355 o
    202 250 o
    341 134 o
    202 27 o
    53 65 o
    -27 120 v
    -52 660 v
    530 658 v
    506 251 v
    0 0 z
  EndSpiro
EndSplineSet
Fore
SplineSet
463 350 m 1
 341 411 l 2
 319.259512234 421.870243883 297.165786621 432.272629695 273.865532511 439.194274642 c 0
 250.565278401 446.115919589 226.306519653 449.935869387 202 450 c 0
 201.796089841 450.000537999 201.592142567 450.000807747 201.38816019 450.000807747 c 0
 171.8600416 450.000807747 141.596310833 444.348250937 116.693572538 428.500468821 c 0
 104.156188432 420.521838951 93.1901154479 409.93263635 85.427749485 397.260217107 c 0
 77.472102896 384.272258357 72.9918000704 369.45160732 72.9918000704 353.86709671 c 0
 72.9918000704 339.044964398 77.195794815 324.285426184 84.7207291255 311.51144296 c 0
 92.4373665105 298.412033392 103.521804407 287.445884258 116.185556344 279.03336915 c 0
 141.513060217 262.208338935 172.163893072 255.862663011 202 250 c 0
 234.502504538 243.613401655 267.915763099 236.48229325 295.138776373 217.611443032 c 0
 308.75028301 208.176017923 320.542013927 195.956836579 328.691436689 181.538540266 c 0
 336.632231378 167.489357383 341.009078331 151.40680128 341.009078331 135.271813646 c 0
 341.009078331 118.211864291 336.306014834 101.998999028 327.887438382 87.6081135941 c 0
 319.682355765 73.5821788542 308.045761083 61.6746422737 294.611550981 52.5328577096 c 0
 267.71114752 34.2275244398 234.462634423 27.0075106137 201.89715464 26.9999762055 c 0
 175.490262401 26.9999762055 149.137942673 31.7057578143 124.162555903 40.2825595723 c 0
 99.1547458317 48.8704958215 75.8466534103 61.6893410566 53 75 c 2
 -62 142 l 1025
  Spiro
    463 350 {
    341 411 ]
    202 450 o
    73 355 o
    202 250 o
    341 134 o
    202 27 o
    53 75 [
    -62 142 v
    0 0 z
  EndSpiro
EndSplineSet
Layer: 2
EndChar
StartChar: t
Encoding: 116 116 6
Width: 358
VWidth: 0
InSpiro: 1
Flags: HW
LayerCount: 3
Back
Fore
SplineSet
314 42 m 0
 292.509696396 32.5968617798 269.273346358 26.9999742438 245.748572362 26.9999742438 c 0
 232.251561624 26.9999742438 218.682708507 28.95307836 206.014786755 33.6080270797 c 0
 193.268201315 38.2918815216 181.500695057 45.816143201 172.356839476 55.85625465 c 0
 163.212983895 65.8963660986 156.871890224 78.3596011391 153.563452309 91.5303327571 c 0
 150.255014394 104.701064375 150 118.42009084 150 132 c 2
 150 318 l 2
 150 331.745930937 150.674113945 345.713101755 155.250472461 358.674874785 c 0
 159.826830976 371.636647814 167.891268545 383.151642316 177.402649603 393.075565316 c 0
 186.914030667 402.999488301 197.67741585 411.623643065 207.918866336 420.7922476 c 0
 218.160316821 429.960852135 227.694461079 439.882808565 237 450 c 0
 243.169856213 456.708006608 249.391372814 463.448681133 256.660976073 468.945711859 c 0
 263.930579332 474.442742586 272.439916483 478.59639496 281.509971833 479.490024806 c 0
 290.58002718 480.383654655 299.932839064 477.771394811 307.242757391 472.328089533 c 0
 314.552675718 466.884784255 319.506697419 458.92935749 324 451 c 2
 341 421 l 1
 394 107.0002 l 1
 373.751301229 78.7300117668 345.857606212 55.9393784333 314 42 c 0
  Spiro
    314 42 o
    246 27.0002 o
    150 132 [
    150 318 ]
    237 450 o
    324 451 [
    341 421 v
    394 107 v
    0 0 z
  EndSpiro
EndSplineSet
Layer: 2
EndChar
StartChar: u
Encoding: 117 117 8
Width: 480
VWidth: 0
InSpiro: 1
Flags: HW
LayerCount: 3
Back
Fore
SplineSet
100 288 m 2
 100 308.660465765 100.411277869 329.530109396 105.444103775 349.568210829 c 0
 110.476929681 369.606312261 120.066480912 388.566815243 133.811182291 403.992055262 c 0
 147.555883671 419.41729528 165.194886596 431.20951258 184.405739641 438.812010255 c 0
 203.616592685 446.414507931 224.339534235 450.000000001 245 450 c 0
 265.660465765 450 286.383407315 446.414507929 305.59426036 438.812010253 c 0
 324.805113405 431.209512576 342.444116329 419.417295275 356.188817708 403.992055257 c 0
 369.933519087 388.566815239 379.523070318 369.606312258 384.555896224 349.568210826 c 0
 389.58872213 329.530109394 390 308.660465764 390 288 c 2
 390 189 l 2
 390 168.339534235 389.588722131 147.469890604 384.555896225 127.431789171 c 0
 379.523070319 107.393687739 369.933519088 88.4331847566 356.188817709 73.007944738 c 0
 342.444116329 57.5827047202 324.805113404 45.7904874201 305.594260359 38.1879897446 c 0
 286.383407315 30.5854920691 265.660465765 26.9999999991 245 27 c 0
 224.339534235 27 203.616592685 30.5854920709 184.40573964 38.1879897474 c 0
 165.194886595 45.7904874238 147.555883671 57.5827047249 133.811182292 73.0079447435 c 0
 120.066480913 88.4331847612 110.476929682 107.393687742 105.444103776 127.431789174 c 0
 100.41127787 147.469890606 100 168.339534236 100 189 c 2
 100 288 l 2
  Spiro
    100 288 ]
    245 450 o
    390 288 [
    390 189 ]
    245 27 o
    100 189 [
    0 0 z
  EndSpiro
EndSplineSet
Layer: 2
EndChar
